<svg width="72" height="56" viewBox="0 0 72 56" fill="none" xmlns="http://www.w3.org/2000/svg">
<path d="M35.6359 40.7273C41.2592 40.7273 45.8177 36.1687 45.8177 30.5455C45.8177 24.9222 41.2592 20.3636 35.6359 20.3636C30.0127 20.3636 25.4541 24.9222 25.4541 30.5455C25.4541 36.1687 30.0127 40.7273 35.6359 40.7273Z" fill="#F8F8F8"/>
<path d="M63.6364 10.1818H54.25C53.7727 10.1818 53.1809 9.87318 52.7195 9.38636L48.5927 2.87318C48.5275 2.76981 48.4546 2.67143 48.3748 2.57886C46.9493 0.916363 45.0227 0 42.9545 0H28.3182C26.25 0 24.3234 0.916363 22.898 2.57886C22.8181 2.67143 22.7453 2.76981 22.68 2.87318L18.5532 9.39591C18.2 9.78091 17.7036 10.1914 17.1818 10.1914V8.91864C17.1818 8.24354 16.9136 7.59609 16.4363 7.11873C15.9589 6.64136 15.3115 6.37318 14.6364 6.37318H10.8182C10.1431 6.37318 9.49564 6.64136 9.01827 7.11873C8.54091 7.59609 8.27273 8.24354 8.27273 8.91864V10.1914H7.63636C5.61172 10.1935 3.6706 10.9987 2.23896 12.4303C0.807325 13.862 0.00210571 15.8031 0 17.8277V48.3636C0.00210571 50.3883 0.807325 52.3294 2.23896 53.761C3.6706 55.1927 5.61172 55.9979 7.63636 56H63.6364C65.661 55.9979 67.6021 55.1927 69.0338 53.761C70.4654 52.3294 71.2706 50.3883 71.2727 48.3636V17.8182C71.2706 15.7935 70.4654 13.8524 69.0338 12.4208C67.6021 10.9891 65.661 10.1839 63.6364 10.1818ZM35.6364 45.8182C32.6157 45.8182 29.6629 44.9225 27.1513 43.2443C24.6397 41.5661 22.6822 39.1808 21.5262 36.3901C20.3702 33.5993 20.0678 30.5285 20.6571 27.5659C21.2464 24.6033 22.701 21.8819 24.8369 19.746C26.9728 17.6101 29.6942 16.1555 32.6568 15.5662C35.6194 14.9769 38.6903 15.2793 41.481 16.4353C44.2717 17.5913 46.657 19.5488 48.3352 22.0604C50.0134 24.572 50.9091 27.5248 50.9091 30.5455C50.9045 34.5946 49.2939 38.4766 46.4307 41.3398C43.5675 44.203 39.6855 45.8135 35.6364 45.8182Z" fill="#F8F8F8"/>
</svg>
